<svg aria-hidden="true" style="position:absolute;width:0;height:0;overflow:hidden" xmlns="http://www.w3.org/2000/svg">
  <defs>
    <symbol id="logo" viewBox="0 0 146 19">
<path d="M0.848 0.36H8.576V2.712H3.512V7.584H7.592V9.984H3.512V15.624H9.368V18H0.848V0.36ZM10.1551 6.984H13.1071L15.4831 11.952L16.2511 13.944L17.0191 11.952L19.3711 6.984H22.2511L16.4671 18H15.9631L10.1551 6.984ZM28.8339 18.24C27.5219 18.24 26.4259 17.984 25.5459 17.472C24.6659 16.944 24.0179 16.248 23.6019 15.384C23.1859 14.504 22.9779 13.544 22.9779 12.504C22.9779 11.336 23.2179 10.312 23.6979 9.432C24.1939 8.552 24.8739 7.88 25.7379 7.416C26.6019 6.936 27.5779 6.696 28.6659 6.696C30.3619 6.696 31.6179 7.168 32.4339 8.112C33.2659 9.04 33.6819 10.352 33.6819 12.048C33.6819 12.48 33.6579 12.928 33.6099 13.392H25.6899C25.8659 14.368 26.2099 15.072 26.7219 15.504C27.2499 15.936 27.9779 16.152 28.9059 16.152C29.6739 16.152 30.3059 16.088 30.8019 15.96C31.2979 15.832 31.7539 15.656 32.1699 15.432L32.9619 17.28C32.5619 17.536 32.0179 17.76 31.3299 17.952C30.6419 18.144 29.8099 18.24 28.8339 18.24ZM31.1619 11.592C31.1779 10.6 30.9619 9.904 30.5139 9.504C30.0659 9.088 29.4259 8.88 28.5939 8.88C26.9139 8.88 25.9459 9.784 25.6899 11.592H31.1619ZM36.3993 6.984H38.9433L38.9673 9C39.2713 8.328 39.7513 7.776 40.4073 7.344C41.0633 6.912 41.8313 6.696 42.7113 6.696C43.8473 6.696 44.7193 6.936 45.3273 7.416C45.9353 7.88 46.3433 8.536 46.5513 9.384C46.7593 10.232 46.8633 11.336 46.8633 12.696V18H44.2713V12.768C44.2713 11.376 44.1353 10.376 43.8633 9.768C43.5913 9.144 43.0313 8.832 42.1833 8.832C41.7033 8.832 41.2153 8.984 40.7193 9.288C40.2233 9.576 39.8073 10 39.4713 10.56C39.1513 11.12 38.9913 11.776 38.9913 12.528V18H36.3993V6.984ZM51.164 9.096H49.22V6.984H51.164V2.496L53.78 1.92V6.984H56.324V9.096H53.78V18H51.164V9.096ZM64.4814 0.36H68.3694C70.5614 0.36 72.1614 0.831999 73.1694 1.776C74.1934 2.704 74.7054 3.984 74.7054 5.616C74.7054 7.504 74.1534 8.952 73.0494 9.96C71.9454 10.968 70.3054 11.472 68.1294 11.472H67.1934V18H64.4814V0.36ZM68.2014 9.096C69.6094 9.096 70.5934 8.784 71.1534 8.16C71.7134 7.536 71.9934 6.784 71.9934 5.904C71.9934 4.96 71.7214 4.192 71.1774 3.6C70.6334 3.008 69.7214 2.712 68.4414 2.712H67.1934V9.096H68.2014ZM77.2559 0.36H79.8239V18H77.2559V0.36ZM88.3338 18.24C87.3418 18.24 86.4218 18.008 85.5738 17.544C84.7418 17.064 84.0698 16.392 83.5578 15.528C83.0618 14.648 82.8138 13.624 82.8138 12.456C82.8138 11.304 83.0298 10.296 83.4618 9.432C83.9098 8.568 84.5418 7.896 85.3578 7.416C86.1738 6.936 87.1338 6.696 88.2378 6.696C88.8778 6.696 89.4778 6.808 90.0378 7.032C90.5978 7.256 91.0698 7.536 91.4538 7.872C91.8378 8.192 92.0938 8.512 92.2218 8.832L92.2698 6.984H94.7418V18H92.2938L92.2458 16.056C91.9738 16.632 91.4778 17.144 90.7578 17.592C90.0378 18.024 89.2298 18.24 88.3338 18.24ZM88.7658 16.08C89.6778 16.08 90.4458 15.768 91.0698 15.144C91.6938 14.504 92.0058 13.672 92.0058 12.648V12.48C92.0058 11.792 91.8618 11.176 91.5738 10.632C91.2858 10.088 90.8938 9.664 90.3978 9.36C89.9018 9.056 89.3578 8.904 88.7658 8.904C87.7418 8.904 86.9498 9.24 86.3898 9.912C85.8298 10.568 85.5498 11.424 85.5498 12.48C85.5498 13.552 85.8218 14.424 86.3658 15.096C86.9258 15.752 87.7258 16.08 88.7658 16.08ZM98.2274 6.984H100.771L100.795 9C101.099 8.328 101.579 7.776 102.235 7.344C102.891 6.912 103.659 6.696 104.539 6.696C105.675 6.696 106.547 6.936 107.155 7.416C107.763 7.88 108.171 8.536 108.379 9.384C108.587 10.232 108.691 11.336 108.691 12.696V18H106.099V12.768C106.099 11.376 105.963 10.376 105.691 9.768C105.419 9.144 104.859 8.832 104.011 8.832C103.531 8.832 103.043 8.984 102.547 9.288C102.051 9.576 101.635 10 101.299 10.56C100.979 11.12 100.819 11.776 100.819 12.528V18H98.2274V6.984ZM112.032 6.984H114.576L114.6 9C114.904 8.328 115.384 7.776 116.04 7.344C116.696 6.912 117.464 6.696 118.344 6.696C119.48 6.696 120.352 6.936 120.96 7.416C121.568 7.88 121.976 8.536 122.184 9.384C122.392 10.232 122.496 11.336 122.496 12.696V18H119.904V12.768C119.904 11.376 119.768 10.376 119.496 9.768C119.224 9.144 118.664 8.832 117.816 8.832C117.336 8.832 116.848 8.984 116.352 9.288C115.856 9.576 115.44 10 115.104 10.56C114.784 11.12 114.624 11.776 114.624 12.528V18H112.032V6.984ZM131.045 18.24C129.733 18.24 128.637 17.984 127.757 17.472C126.877 16.944 126.229 16.248 125.813 15.384C125.397 14.504 125.189 13.544 125.189 12.504C125.189 11.336 125.429 10.312 125.909 9.432C126.405 8.552 127.085 7.88 127.949 7.416C128.813 6.936 129.789 6.696 130.877 6.696C132.573 6.696 133.829 7.168 134.645 8.112C135.477 9.04 135.893 10.352 135.893 12.048C135.893 12.48 135.869 12.928 135.821 13.392H127.901C128.077 14.368 128.421 15.072 128.933 15.504C129.461 15.936 130.189 16.152 131.117 16.152C131.885 16.152 132.517 16.088 133.013 15.96C133.509 15.832 133.965 15.656 134.381 15.432L135.173 17.28C134.773 17.536 134.229 17.76 133.541 17.952C132.853 18.144 132.021 18.24 131.045 18.24ZM133.373 11.592C133.389 10.6 133.173 9.904 132.725 9.504C132.277 9.088 131.637 8.88 130.805 8.88C129.125 8.88 128.157 9.784 127.901 11.592H133.373ZM138.538 6.984H141.13V9.144C141.386 8.408 141.802 7.816 142.378 7.368C142.954 6.92 143.61 6.696 144.346 6.696C144.858 6.696 145.21 6.744 145.402 6.84L145.042 9.456C144.898 9.36 144.586 9.312 144.106 9.312C143.354 9.312 142.666 9.552 142.042 10.032C141.434 10.512 141.13 11.28 141.13 12.336V18H138.538V6.984Z"/>
    </symbol>
    <symbol id="icon-arrow-left" viewBox="0 0 24 24" fill="none">
<path d="M4 12L20 12M4 12L10 6M4 12L10 18" stroke="currentColor" stroke-width="1.5" stroke-linecap="round" stroke-linejoin="round"/>
    </symbol>
  </defs>
</svg>





